<?xml version="1.0" encoding="UTF-8"?>
<svg width="85px" height="22px" viewBox="0 0 85 22" version="1.1" xmlns="http://www.w3.org/2000/svg" xmlns:xlink="http://www.w3.org/1999/xlink">
    <!-- Generator: Sketch 59.1 (86144) - https://sketch.com -->
    <title>logo</title>
    <desc>Created with Sketch.</desc>
    <g id="After" stroke="none" stroke-width="1" fill="none" fill-rule="evenodd">
        <g id="image-list" transform="translate(-678.000000, -19.000000)" fill="#10161A">
            <g id="Group-2">
                <g id="logo" transform="translate(678.000000, 19.000000)">
                    <g id="Group">
                        <path d="M4.69270833,18.8571429 L4.69270833,2.91328125 L5.68434189e-14,2.91328125 L5.68434189e-14,18.8571429 L4.69270833,18.8571429 Z M26.6168547,18.8571429 L26.6168547,2.91328125 L21.1936777,2.91328125 L17.6298756,12.2166295 L17.5413339,12.2166295 L13.9664641,2.91328125 L8.54328704,2.91328125 L8.54328704,18.8571429 L12.6383391,18.8571429 L12.6383391,9.62008929 L12.7268808,9.62008929 L16.323886,18.669308 L18.8362558,18.669308 L22.433261,9.62008929 L22.5218027,9.62008929 L22.5218027,18.8571429 L26.6168547,18.8571429 Z M39.6816696,18.8571429 L44.6842737,18.8571429 L39.4713831,2.91328125 L33.5833623,2.91328125 L28.3704716,18.8571429 L33.1517216,18.8571429 L33.9817998,15.6860491 L38.8515914,15.6860491 L39.6816696,18.8571429 Z M36.3724248,6.59263393 L36.4609664,6.59263393 L37.9993779,12.3823661 L34.8340133,12.3823661 L36.3724248,6.59263393 Z M60.2794126,12.0729911 C60.2794126,16.4373884 57.5235532,19.1333705 52.8861834,19.1333705 C47.817173,19.1333705 44.8178241,16.1611607 44.8178241,10.8686384 C44.8178241,5.64241071 47.817173,2.63705357 52.7423032,2.63705357 C56.7488137,2.63705357 59.7370949,4.99051339 60.0912616,8.26104911 L55.4760272,8.26104911 C55.1661314,7.08984375 54.1146991,6.32745536 52.7644387,6.32745536 C50.7722512,6.32745536 49.5990741,7.96272321 49.5990741,10.8023438 C49.5990741,13.7082589 50.9382668,15.4429688 52.9968605,15.4429688 C54.5242043,15.4429688 55.6088397,14.5921875 55.7416522,13.3104911 L55.7637876,13.0895089 L53.3288918,13.0895089 L53.3288918,9.97366071 L60.2794126,9.97366071 L60.2794126,12.0729911 Z" id="IMAG" fill-rule="nonzero"></path>
                        <path d="M64.8387589,0 C63.5352095,0 62.4858218,1.05785698 62.4858218,2.3653086 L62.4858218,19.6428623 C62.4858218,20.9503401 63.5352095,22 64.8387589,22 L82.1699217,22 C83.4734711,22 84.5228588,20.9503401 84.5228588,19.6428623 L84.5228588,2.3653086 C84.5228588,1.05783079 83.4734711,0 82.1699217,0 L64.8387589,0 Z M73.5043403,2.51428571 C78.1920903,2.51428571 82.0043403,6.32012857 82.0043403,11 C82.0043403,15.6798714 78.1920903,19.4857143 73.5043403,19.4857143 C68.8165903,19.4857143 65.0043403,15.6798714 65.0043403,11 C65.0043403,6.32012857 68.8165903,2.51428571 73.5043403,2.51428571 Z M73.5043403,6.91428571 C71.2382206,6.91428571 69.4117477,8.73768893 69.4117477,11 C69.4117477,13.2623111 71.2382206,15.0857143 73.5043403,15.0857143 C75.77046,15.0857143 77.5969329,13.2623111 77.5969329,11 C77.5969329,8.73768893 75.77046,6.91428571 73.5043403,6.91428571 Z M82.3191551,18.8571429 C82.8405514,18.8571429 83.2635995,19.138701 83.2635995,19.4857143 C83.2635995,19.8327276 82.8405514,20.1142857 82.3191551,20.1142857 C81.7977588,20.1142857 81.3747106,19.8327276 81.3747106,19.4857143 C81.3747106,19.138701 81.7977588,18.8571429 82.3191551,18.8571429 Z" id="Fill-1"></path>
                    </g>
                </g>
            </g>
        </g>
    </g>
</svg>